<svg width="57" height="56" viewBox="0 0 57 56" fill="none" xmlns="http://www.w3.org/2000/svg">
<rect x="1" y="0.5" width="55" height="55" rx="3.5" fill="#00FF1A" fill-opacity="0.1"/>
<rect x="1" y="0.5" width="55" height="55" rx="3.5" stroke="#00FF1A"/>
<path d="M36.5 23.7725V22C36.5 20.3431 35.1569 19 33.5 19H23.5C21.8431 19 20.5 20.3431 20.5 22V23.7725" stroke="#00FF1A" stroke-width="1.5" stroke-linecap="round" stroke-linejoin="round"/>
<path fill-rule="evenodd" clip-rule="evenodd" d="M37.5 34C37.5 35.6568 36.1569 37 34.5 37L22.5 37C20.8431 37 19.5 35.6569 19.5 34L19.5 26C19.5 24.3432 20.8431 23 22.5 23L34.5 23C36.1568 23 37.5 24.3431 37.5 26L37.5 34Z" stroke="#00FF1A" stroke-width="1.5" stroke-linecap="round" stroke-linejoin="round"/>
<path d="M30.5 30H26.5" stroke="#00FF1A" stroke-width="1.5" stroke-linecap="round" stroke-linejoin="round"/>
<path d="M28.5 28V32" stroke="#00FF1A" stroke-width="1.5" stroke-linecap="round" stroke-linejoin="round"/>
</svg>
